<?xml version="1.0" standalone="no"?>
<!DOCTYPE svg PUBLIC "-//W3C//DTD SVG 20010904//EN"
 "http://www.w3.org/TR/2001/REC-SVG-20010904/DTD/svg10.dtd">
<svg version="1.0" xmlns="http://www.w3.org/2000/svg"
 width="500.000000pt" height="500.000000pt" viewBox="0 0 500.000000 500.000000"
 preserveAspectRatio="xMidYMid meet">
<metadata>
Created by potrace 1.11, written by Peter Selinger 2001-2013
</metadata>
<g transform="translate(0.000000,500.000000) scale(0.100000,-0.100000)"
fill="#000000" stroke="none">
<path d="M4325 3132 c-55 -8 -101 -16 -103 -17 -2 -2 0 -24 3 -49 7 -43 9 -45
44 -48 l36 -3 0 -115 c0 -98 -2 -114 -15 -111 -8 3 -46 5 -85 5 -123 -1 -217
-61 -269 -173 -18 -40 -21 -64 -21 -186 0 -132 1 -143 27 -190 54 -102 124
-145 235 -145 53 0 77 5 109 24 l41 23 27 -24 c33 -28 110 -32 163 -6 42 20
48 32 34 75 -9 28 -16 34 -39 33 l-27 0 -3 436 -2 435 -28 25 -27 25 -100 -14z
m-37 -488 c21 -15 22 -21 22 -179 l0 -165 -29 -32 c-25 -28 -36 -33 -76 -33
-40 0 -51 5 -75 32 -39 44 -53 102 -47 195 6 90 35 161 75 183 36 19 102 19
130 -1z"/>
<path d="M402 3013 l3 -68 43 -3 42 -3 0 -348 0 -349 -47 -8 c-26 -5 -47 -11
-46 -14 1 -3 4 -31 8 -62 l7 -58 149 0 149 0 0 64 0 64 -35 12 -35 12 0 311
c0 171 4 307 8 302 5 -6 73 -180 153 -387 l144 -378 143 0 142 0 0 414 0 415
45 7 c25 3 47 10 50 14 2 4 0 35 -6 69 l-11 61 -154 0 -154 0 0 -64 0 -63 43
-9 42 -9 3 -338 c1 -186 -1 -336 -5 -334 -5 3 -78 188 -163 411 l-155 406
-183 0 -183 0 3 -67z"/>
<path d="M1625 2791 c-171 -44 -269 -215 -236 -412 20 -120 79 -206 174 -253
73 -37 191 -37 264 0 64 31 117 89 151 163 23 49 26 69 26 156 0 80 -5 111
-23 157 -26 68 -88 135 -152 166 -50 24 -155 36 -204 23z m151 -161 c73 -69
72 -302 -2 -371 -36 -34 -122 -34 -158 0 -78 73 -74 309 6 376 28 23 39 27 80
23 33 -4 57 -13 74 -28z"/>
<path d="M2180 2781 c-104 -18 -97 -10 -92 -91 2 -28 5 -30 42 -30 l40 0 0
-224 0 -224 -44 -11 -44 -11 9 -37 c5 -21 9 -41 9 -45 0 -5 72 -8 160 -8 l160
0 0 45 c0 41 -2 45 -27 51 -16 3 -34 7 -40 10 -10 2 -13 52 -13 204 l0 200 33
20 c68 42 143 34 166 -16 7 -16 11 -95 11 -214 l0 -189 -32 -9 c-31 -8 -33
-11 -36 -55 l-3 -47 156 0 156 0 -3 47 c-3 44 -5 48 -33 53 l-30 5 -3 202 -2
201 32 20 c71 43 150 36 169 -15 5 -13 9 -109 9 -213 l0 -189 -40 -11 c-39
-11 -40 -12 -40 -55 l0 -45 160 0 160 0 0 50 c0 43 -3 50 -19 50 -52 0 -51 -4
-51 237 0 188 -3 231 -16 260 -50 105 -227 133 -367 59 l-43 -23 -27 23 c-33
28 -124 48 -180 39 -23 -4 -62 -16 -86 -26 l-44 -19 -27 25 c-14 14 -28 24
-31 24 -2 -1 -47 -9 -99 -18z"/>
<path d="M3409 2776 c-32 -12 -69 -33 -85 -45 -29 -23 -74 -79 -74 -93 0 -9
115 -64 155 -74 20 -5 25 0 40 45 16 50 18 51 55 51 22 0 51 -5 65 -12 23 -10
25 -16 25 -73 l0 -62 -60 -7 c-86 -10 -151 -31 -199 -66 -62 -45 -81 -83 -81
-161 0 -78 23 -121 85 -157 34 -19 51 -22 121 -20 69 3 85 7 115 29 l35 27 32
-29 c27 -24 41 -29 85 -29 34 0 63 7 83 19 31 19 31 20 21 60 -8 28 -17 41
-29 41 -32 0 -38 35 -38 230 0 170 -2 196 -20 235 -48 104 -199 146 -331 91z
m181 -436 c0 -42 -5 -55 -26 -75 -47 -44 -109 -42 -134 5 -23 44 10 88 81 108
72 21 79 18 79 -38z"/>
<path d="M320 1910 c0 -20 7 -20 2160 -20 2153 0 2160 0 2160 20 0 20 -7 20
-2160 20 -2153 0 -2160 0 -2160 -20z"/>
<path d="M2404 785 c-10 -25 4 -47 28 -43 17 2 24 11 26 31 3 23 0 27 -23 27
-14 0 -28 -7 -31 -15z"/>
<path d="M2098 673 c-79 -91 -23 -222 84 -197 36 9 35 9 61 -1 15 -6 17 -1 17
43 0 55 13 97 37 125 24 26 33 5 33 -79 0 -80 13 -101 55 -90 35 9 33 -17 -5
-61 -48 -54 -36 -143 19 -143 34 0 51 33 51 101 1 57 4 68 31 97 28 31 31 32
51 17 30 -20 50 -19 81 5 32 26 69 26 92 0 22 -24 42 -25 67 -3 17 15 18 15
18 -12 0 -16 -12 -41 -30 -62 -48 -54 -36 -143 19 -143 35 0 51 33 51 102 0
53 4 68 21 84 28 25 62 92 55 110 -8 21 -24 17 -32 -8 -4 -13 -14 -34 -23 -48
-15 -23 -16 -21 -21 75 -4 80 -8 100 -20 100 -11 0 -16 -17 -21 -73 -5 -73
-25 -112 -48 -98 -13 9 -14 89 -2 134 8 27 7 34 -6 39 -19 7 -31 -11 -38 -57
-9 -55 -19 -83 -32 -88 -9 -2 -13 10 -13 42 0 66 -14 96 -45 96 -46 0 -56 -78
-19 -138 13 -20 13 -23 -1 -28 -40 -16 -65 53 -41 111 20 47 20 65 1 65 -20 0
-44 -50 -51 -107 -4 -27 -14 -59 -23 -73 -15 -24 -16 -22 -21 75 -4 80 -8 100
-20 100 -12 0 -16 -17 -20 -75 -3 -41 -9 -81 -13 -87 -18 -28 -27 -10 -27 51
0 88 -12 116 -49 116 -15 0 -34 -7 -41 -15 -11 -14 -14 -13 -25 1 -21 30 -35
6 -35 -62 0 -51 -4 -68 -20 -84 -23 -23 -62 -26 -79 -7 -8 11 -5 17 15 28 45
24 70 99 42 127 -18 18 -63 15 -80 -5z m41 -59 c-20 -39 -42 -44 -33 -7 9 37
25 56 37 44 6 -6 4 -19 -4 -37z m471 -6 c0 -25 -3 -29 -10 -18 -13 20 -13 50
0 50 6 0 10 -15 10 -32z m-205 -296 c-9 -9 -24 19 -19 35 13 44 18 46 22 9 2
-21 1 -41 -3 -44z m385 38 c0 -40 -13 -53 -24 -25 -5 15 9 65 19 65 3 0 5 -18
5 -40z"/>
<path d="M327 592 c-34 -37 -15 -82 33 -82 49 0 68 51 32 83 -24 22 -45 21
-65 -1z"/>
<path d="M576 594 c-19 -18 -21 -55 -4 -72 15 -15 61 -15 76 0 18 18 15 53 -6
71 -23 21 -46 22 -66 1z"/>
<path d="M826 594 c-20 -19 -21 -58 -2 -73 25 -21 69 -9 80 21 17 50 -42 89
-78 52z"/>
<path d="M1076 594 c-20 -19 -21 -58 -2 -73 25 -21 69 -9 80 21 17 50 -42 89
-78 52z"/>
<path d="M1328 599 c-22 -12 -24 -62 -4 -78 46 -38 111 25 71 69 -20 22 -41
25 -67 9z"/>
<path d="M1578 599 c-22 -12 -24 -62 -4 -78 46 -38 111 25 71 69 -20 22 -41
25 -67 9z"/>
<path d="M1828 599 c-21 -12 -24 -59 -6 -77 19 -19 66 -15 78 7 14 28 13 38
-10 61 -22 22 -37 24 -62 9z"/>
<path d="M3098 599 c-21 -12 -24 -59 -6 -77 27 -27 88 -3 88 34 0 17 -36 54
-52 54 -7 0 -21 -5 -30 -11z"/>
<path d="M3346 594 c-20 -19 -21 -58 -2 -73 25 -21 69 -9 80 21 17 50 -42 89
-78 52z"/>
<path d="M3597 592 c-34 -37 -15 -82 33 -82 32 0 50 17 50 46 0 48 -52 70 -83
36z"/>
<path d="M3845 590 c-27 -29 -10 -74 28 -78 37 -4 57 13 57 49 0 47 -53 65
-85 29z"/>
<path d="M4106 597 c-22 -16 -18 -65 5 -80 9 -5 28 -7 42 -3 23 5 27 12 27 41
0 48 -37 69 -74 42z"/>
<path d="M4358 599 c-22 -12 -24 -62 -4 -78 46 -38 111 25 71 69 -20 22 -41
25 -67 9z"/>
<path d="M4607 592 c-34 -37 -15 -82 33 -82 49 0 68 51 32 83 -24 22 -45 21
-65 -1z"/>
</g>
</svg>
