<?xml version="1.0" ?><!DOCTYPE svg  PUBLIC '-//W3C//DTD SVG 1.1//EN'  'http://www.w3.org/Graphics/SVG/1.1/DTD/svg11.dtd'><svg enable-background="new 0 0 48 48" id="Layer_1" version="1.1" viewBox="0 0 48 48" xml:space="preserve" xmlns="http://www.w3.org/2000/svg" xmlns:xlink="http://www.w3.org/1999/xlink"><g><g><path d="M38.1,5.8c-7.8-7.8-20.4-7.8-28.1,0c-7.8,7.8-7.8,20.3,0,28.1L24,48l14-14C45.8,26.2,45.8,13.6,38.1,5.8z" fill="#FFD15D"/><path d="M24,34c-7.8,0-14.1-6.3-14.1-14.1c0-7.8,6.3-14.1,14.1-14.1c7.8,0,14.1,6.3,14.1,14.1    C38.1,27.7,31.8,34,24,34z" fill="#FFFFFF"/><polygon fill="#F3705B" points="33.5,17.3 26.9,16.3 24,10.4 21.1,16.3 14.5,17.3 19.2,21.9 18.1,28.5 24,25.4 29.9,28.5     28.8,21.9   "/></g></g></svg>